# xmcd
#
# Track frame offsets: 
#        187
#        15535
#        32465
#        44235
#        57927
#        72355
#        88695
#        102612
#        114315
#        129022
#
# Disc length: 1944 seconds
#
# Revision: 0
# Processed by: cddbd v1.5.1PL0 Copyright (c) Steve Scherf et al.
# Submitted via: ExactAudioCopy v0.90a11
#
DISCID=8107960a
DTITLE=John Schneider - Tryin' To Outrun The Wind
DYEAR=1985
DGENRE=country
TTITLE0=It's A Short Walk From Heaven To Hell
TTITLE1=I'm Gonna Leave You Tomorrow
TTITLE2=He's Back In Texas
TTITLE3=Say Hello To Goodbye
TTITLE4=Why Did You Say I Do To Me
TTITLE5=Tryin' To Outrun The Wind
TTITLE6=Leavin's Been Comin' (For A Long, Long Time)
TTITLE7=I Don't Feel Much Like A Cowboy Tonight
TTITLE8=Bad Case Of Love
TTITLE9=Honeymoon Wine
EXTD=
EXTT0=
EXTT1=
EXTT2=
EXTT3=
EXTT4=
EXTT5=
EXTT6=
EXTT7=
EXTT8=
EXTT9=
PLAYORDER=
